<svg xmlns="http://www.w3.org/2000/svg" version="1.1" xmlns:xlink="http://www.w3.org/1999/xlink" xmlns:svgjs="http://svgjs.com/svgjs" width="1920" height="1080" preserveAspectRatio="none" viewBox="0 0 1920 1080"><g mask="url(&quot;#SvgjsMask1006&quot;)" fill="none"><rect width="1920" height="1080" x="0" y="0" fill="url(#SvgjsLinearGradient1007)"></rect><path d="M203.26 581.97L290.73 632.47L290.73 733.47L203.26 783.97L115.79 733.47L115.79 632.47zM378.2 278.97L465.68 329.47L465.68 430.47L378.2 480.97L290.73 430.47L290.73 329.47zM903.03 278.97L990.5 329.47L990.5 430.47L903.03 480.97L815.56 430.47L815.56 329.47zM1340.39 733.47L1427.86 783.97L1427.86 884.97L1340.39 935.47L1252.91 884.97L1252.91 783.97zM1427.86 278.97L1515.33 329.47L1515.33 430.47L1427.86 480.97L1340.39 430.47L1340.39 329.47zM1777.74 -24.03L1865.21 26.47L1865.21 127.47L1777.74 177.97L1690.27 127.47L1690.27 26.47zM1777.74 278.97L1865.21 329.47L1865.21 430.47L1777.74 480.97L1690.27 430.47L1690.27 329.47z" stroke="rgba(255, 255, 255, 0.93)" stroke-width="2"></path></g><defs><mask id="SvgjsMask1006"><rect width="1920" height="1080" fill="#ffffff"></rect></mask><linearGradient x1="10.94%" y1="-19.44%" x2="89.06%" y2="119.44%" gradientUnits="userSpaceOnUse" id="SvgjsLinearGradient1007"><stop stop-color="rgba(14, 42, 71, 1)" offset="0"></stop><stop stop-color="rgba(0, 0, 0, 1)" offset="0"></stop></linearGradient></defs></svg>