<svg xmlns="http://www.w3.org/2000/svg" version="1.1" xmlns:xlink="http://www.w3.org/1999/xlink" xmlns:svgjs="http://svgjs.com/svgjs" width="3840" height="2160" preserveAspectRatio="none" viewBox="0 0 3840 2160"><g mask="url(&quot;#SvgjsMask1553&quot;)" fill="none"><rect width="3840" height="2160" x="0" y="0" fill="url(#SvgjsLinearGradient1554)"></rect><path d="M50.57 -76.67L129.38 -31.17L129.38 59.83L50.57 105.33L-28.24 59.83L-28.24 -31.17zM129.38 878.83L208.19 924.33L208.19 1015.33L129.38 1060.83L50.57 1015.33L50.57 924.33zM287 1151.83L365.81 1197.33L365.81 1288.33L287 1333.83L208.19 1288.33L208.19 1197.33zM287 1424.83L365.81 1470.33L365.81 1561.33L287 1606.83L208.19 1561.33L208.19 1470.33zM365.81 196.33L444.62 241.83L444.62 332.83L365.81 378.33L287 332.83L287 241.83zM444.62 332.83L523.43 378.33L523.43 469.33L444.62 514.83L365.81 469.33L365.81 378.33zM444.62 878.83L523.43 924.33L523.43 1015.33L444.62 1060.83L365.81 1015.33L365.81 924.33zM523.43 -76.67L602.24 -31.17L602.24 59.83L523.43 105.33L444.62 59.83L444.62 -31.17zM523.43 1834.33L602.24 1879.83L602.24 1970.83L523.43 2016.33L444.62 1970.83L444.62 1879.83zM681.05 1288.33L759.86 1333.83L759.86 1424.83L681.05 1470.33L602.24 1424.83L602.24 1333.83zM759.86 1970.83L838.68 2016.33L838.68 2107.33L759.86 2152.83L681.05 2107.33L681.05 2016.33zM917.49 332.83L996.3 378.33L996.3 469.33L917.49 514.83L838.68 469.33L838.68 378.33zM1075.11 1424.83L1153.92 1470.33L1153.92 1561.33L1075.11 1606.83L996.3 1561.33L996.3 1470.33zM996.3 2107.33L1075.11 2152.83L1075.11 2243.83L996.3 2289.33L917.49 2243.83L917.49 2152.83zM1232.73 1151.83L1311.54 1197.33L1311.54 1288.33L1232.73 1333.83L1153.92 1288.33L1153.92 1197.33zM1153.92 1834.33L1232.73 1879.83L1232.73 1970.83L1153.92 2016.33L1075.11 1970.83L1075.11 1879.83zM1311.54 196.33L1390.35 241.83L1390.35 332.83L1311.54 378.33L1232.73 332.83L1232.73 241.83zM1390.35 878.83L1469.16 924.33L1469.16 1015.33L1390.35 1060.83L1311.54 1015.33L1311.54 924.33zM1311.54 1288.33L1390.35 1333.83L1390.35 1424.83L1311.54 1470.33L1232.73 1424.83L1232.73 1333.83zM1469.16 -76.67L1547.97 -31.17L1547.97 59.83L1469.16 105.33L1390.35 59.83L1390.35 -31.17zM1469.16 1288.33L1547.97 1333.83L1547.97 1424.83L1469.16 1470.33L1390.35 1424.83L1390.35 1333.83zM1469.16 2107.33L1547.97 2152.83L1547.97 2243.83L1469.16 2289.33L1390.35 2243.83L1390.35 2152.83zM1705.59 878.83L1784.4 924.33L1784.4 1015.33L1705.59 1060.83L1626.78 1015.33L1626.78 924.33zM1626.78 1288.33L1705.59 1333.83L1705.59 1424.83L1626.78 1470.33L1547.97 1424.83L1547.97 1333.83zM1863.21 878.83L1942.02 924.33L1942.02 1015.33L1863.21 1060.83L1784.4 1015.33L1784.4 924.33zM1784.4 1288.33L1863.21 1333.83L1863.21 1424.83L1784.4 1470.33L1705.59 1424.83L1705.59 1333.83zM2020.83 1970.83L2099.64 2016.33L2099.64 2107.33L2020.83 2152.83L1942.02 2107.33L1942.02 2016.33zM2178.45 1424.83L2257.27 1470.33L2257.27 1561.33L2178.45 1606.83L2099.64 1561.33L2099.64 1470.33zM2099.64 1834.33L2178.45 1879.83L2178.45 1970.83L2099.64 2016.33L2020.83 1970.83L2020.83 1879.83zM2336.08 332.83L2414.89 378.33L2414.89 469.33L2336.08 514.83L2257.27 469.33L2257.27 378.33zM2257.27 2107.33L2336.08 2152.83L2336.08 2243.83L2257.27 2289.33L2178.45 2243.83L2178.45 2152.83zM2414.89 -76.67L2493.7 -31.17L2493.7 59.83L2414.89 105.33L2336.08 59.83L2336.08 -31.17zM2493.7 332.83L2572.51 378.33L2572.51 469.33L2493.7 514.83L2414.89 469.33L2414.89 378.33zM2414.89 1015.33L2493.7 1060.83L2493.7 1151.83L2414.89 1197.33L2336.08 1151.83L2336.08 1060.83zM2572.51 1561.33L2651.32 1606.83L2651.32 1697.83L2572.51 1743.33L2493.7 1697.83L2493.7 1606.83zM2651.32 1697.83L2730.13 1743.33L2730.13 1834.33L2651.32 1879.83L2572.51 1834.33L2572.51 1743.33zM2808.94 332.83L2887.75 378.33L2887.75 469.33L2808.94 514.83L2730.13 469.33L2730.13 378.33zM2808.94 878.83L2887.75 924.33L2887.75 1015.33L2808.94 1060.83L2730.13 1015.33L2730.13 924.33zM2808.94 1424.83L2887.75 1470.33L2887.75 1561.33L2808.94 1606.83L2730.13 1561.33L2730.13 1470.33zM2730.13 1834.33L2808.94 1879.83L2808.94 1970.83L2730.13 2016.33L2651.32 1970.83L2651.32 1879.83zM2966.56 1970.83L3045.37 2016.33L3045.37 2107.33L2966.56 2152.83L2887.75 2107.33L2887.75 2016.33zM3045.37 1561.33L3124.18 1606.83L3124.18 1697.83L3045.37 1743.33L2966.56 1697.83L2966.56 1606.83zM3124.18 1697.83L3202.99 1743.33L3202.99 1834.33L3124.18 1879.83L3045.37 1834.33L3045.37 1743.33zM3202.99 -76.67L3281.8 -31.17L3281.8 59.83L3202.99 105.33L3124.18 59.83L3124.18 -31.17zM3202.99 469.33L3281.8 514.83L3281.8 605.83L3202.99 651.33L3124.18 605.83L3124.18 514.83zM3202.99 1561.33L3281.8 1606.83L3281.8 1697.83L3202.99 1743.33L3124.18 1697.83L3124.18 1606.83zM3281.8 1697.83L3360.61 1743.33L3360.61 1834.33L3281.8 1879.83L3202.99 1834.33L3202.99 1743.33zM3202.99 2107.33L3281.8 2152.83L3281.8 2243.83L3202.99 2289.33L3124.18 2243.83L3124.18 2152.83zM3360.61 -76.67L3439.42 -31.17L3439.42 59.83L3360.61 105.33L3281.8 59.83L3281.8 -31.17zM3360.61 196.33L3439.42 241.83L3439.42 332.83L3360.61 378.33L3281.8 332.83L3281.8 241.83zM3360.61 2107.33L3439.42 2152.83L3439.42 2243.83L3360.61 2289.33L3281.8 2243.83L3281.8 2152.83zM3597.04 59.83L3675.86 105.33L3675.86 196.33L3597.04 241.83L3518.23 196.33L3518.23 105.33zM3912.29 59.83L3991.1 105.33L3991.1 196.33L3912.29 241.83L3833.48 196.33L3833.48 105.33z" stroke="rgba(255, 255, 255, 0.93)" stroke-width="2"></path></g><defs><mask id="SvgjsMask1553"><rect width="3840" height="2160" fill="#ffffff"></rect></mask><linearGradient x1="10.94%" y1="-19.44%" x2="89.06%" y2="119.44%" gradientUnits="userSpaceOnUse" id="SvgjsLinearGradient1554"><stop stop-color="rgba(14, 42, 71, 1)" offset="0"></stop><stop stop-color="rgba(0, 0, 0, 1)" offset="0"></stop></linearGradient></defs></svg>