<svg xmlns="http://www.w3.org/2000/svg" version="1.1" xmlns:xlink="http://www.w3.org/1999/xlink" xmlns:svgjs="http://svgjs.com/svgjs" width="3840" height="2160" preserveAspectRatio="none" viewBox="0 0 3840 2160"><g mask="url(&quot;#SvgjsMask1025&quot;)" fill="none"><path d="M192.06 688.52L328.89 767.52L328.89 925.52L192.06 1004.52L55.22 925.52L55.22 767.52zM192.06 1636.52L328.89 1715.52L328.89 1873.52L192.06 1952.52L55.22 1873.52L55.22 1715.52zM328.89 -22.48L465.73 56.52L465.73 214.52L328.89 293.52L192.06 214.52L192.06 56.52zM328.89 925.52L465.73 1004.52L465.73 1162.52L328.89 1241.52L192.06 1162.52L192.06 1004.52zM465.73 1636.52L602.56 1715.52L602.56 1873.52L465.73 1952.52L328.89 1873.52L328.89 1715.52zM602.56 1399.52L739.4 1478.52L739.4 1636.52L602.56 1715.52L465.73 1636.52L465.73 1478.52zM602.56 1873.52L739.4 1952.52L739.4 2110.52L602.56 2189.52L465.73 2110.52L465.73 1952.52zM1013.07 688.52L1149.91 767.52L1149.91 925.52L1013.07 1004.52L876.24 925.52L876.24 767.52zM1013.07 1636.52L1149.91 1715.52L1149.91 1873.52L1013.07 1952.52L876.24 1873.52L876.24 1715.52zM876.24 1873.52L1013.07 1952.52L1013.07 2110.52L876.24 2189.52L739.4 2110.52L739.4 1952.52zM1149.91 925.52L1286.74 1004.52L1286.74 1162.52L1149.91 1241.52L1013.07 1162.52L1013.07 1004.52zM1286.74 1636.52L1423.58 1715.52L1423.58 1873.52L1286.74 1952.52L1149.91 1873.52L1149.91 1715.52zM1560.41 688.52L1697.25 767.52L1697.25 925.52L1560.41 1004.52L1423.58 925.52L1423.58 767.52zM1423.58 925.52L1560.41 1004.52L1560.41 1162.52L1423.58 1241.52L1286.74 1162.52L1286.74 1004.52zM1834.09 2110.52L1970.92 2189.52L1970.92 2347.52L1834.09 2426.52L1697.25 2347.52L1697.25 2189.52zM2107.76 214.52L2244.59 293.52L2244.59 451.52L2107.76 530.52L1970.92 451.52L1970.92 293.52zM2107.76 1162.52L2244.59 1241.52L2244.59 1399.52L2107.76 1478.52L1970.92 1399.52L1970.92 1241.52zM1970.92 1399.52L2107.76 1478.52L2107.76 1636.52L1970.92 1715.52L1834.09 1636.52L1834.09 1478.52zM2244.59 1873.52L2381.43 1952.52L2381.43 2110.52L2244.59 2189.52L2107.76 2110.52L2107.76 1952.52zM2518.27 925.52L2655.1 1004.52L2655.1 1162.52L2518.27 1241.52L2381.43 1162.52L2381.43 1004.52zM2655.1 1636.52L2791.94 1715.52L2791.94 1873.52L2655.1 1952.52L2518.27 1873.52L2518.27 1715.52zM2928.77 214.52L3065.61 293.52L3065.61 451.52L2928.77 530.52L2791.94 451.52L2791.94 293.52zM2791.94 451.52L2928.77 530.52L2928.77 688.52L2791.94 767.52L2655.1 688.52L2655.1 530.52zM2928.77 688.52L3065.61 767.52L3065.61 925.52L2928.77 1004.52L2791.94 925.52L2791.94 767.52zM3202.45 1636.52L3339.28 1715.52L3339.28 1873.52L3202.45 1952.52L3065.61 1873.52L3065.61 1715.52zM3065.61 1873.52L3202.45 1952.52L3202.45 2110.52L3065.61 2189.52L2928.77 2110.52L2928.77 1952.52zM3202.45 2110.52L3339.28 2189.52L3339.28 2347.52L3202.45 2426.52L3065.61 2347.52L3065.61 2189.52zM3339.28 -22.48L3476.12 56.52L3476.12 214.52L3339.28 293.52L3202.45 214.52L3202.45 56.52zM3749.79 1162.52L3886.63 1241.52L3886.63 1399.52L3749.79 1478.52L3612.95 1399.52L3612.95 1241.52zM3886.63 1399.52L4023.46 1478.52L4023.46 1636.52L3886.63 1715.52L3749.79 1636.52L3749.79 1478.52z" stroke="rgba(255, 255, 255, 0.93)" stroke-width="2"></path></g><defs><mask id="SvgjsMask1025"><rect width="3840" height="2160" fill="#ffffff"></rect></mask></defs></svg>